<svg width="899" height="339" viewBox="0 0 899 339" fill="none" xmlns="http://www.w3.org/2000/svg">
<path d="M781.52 125.83H811.13V202.34H854.14V16.71H811.13V88.95H781.52V16.71H738.51V202.34H781.52V125.83Z" fill="white"/>
<path d="M261.52 320.77L266.76 326.01L274.02 319.76H275.62V338.78H283.97V312.59H271.23L261.52 320.77Z" fill="white"/>
<path d="M315.2 312.59H297.32C293.71 312.59 290.78 315.52 290.78 319.13V323.15C290.78 326.76 293.71 329.69 297.32 329.69H309.29C310.93 329.69 312.42 329.08 313.57 328.08V330.9C313.57 331.87 312.78 332.66 311.81 332.66H300.48C299.51 332.66 298.72 331.87 298.72 330.9H291.34V332.33C291.34 335.89 294.22 338.77 297.78 338.77H315.3C318.86 338.77 321.74 335.89 321.74 332.33V319.12C321.74 315.51 318.81 312.58 315.2 312.58V312.59ZM310.99 323.67H301.17C299.84 323.67 298.76 322.59 298.76 321.26C298.76 319.93 299.84 318.85 301.17 318.85H310.99C312.32 318.85 313.4 319.93 313.4 321.26C313.4 322.59 312.32 323.67 310.99 323.67Z" fill="white"/>
<path d="M350.09 312.59H332.21C328.6 312.59 325.67 315.52 325.67 319.13V323.15C325.67 326.76 328.6 329.69 332.21 329.69H344.18C345.82 329.69 347.31 329.08 348.46 328.08V330.9C348.46 331.87 347.67 332.66 346.7 332.66H335.37C334.4 332.66 333.61 331.87 333.61 330.9H326.23V332.33C326.23 335.89 329.11 338.77 332.67 338.77H350.19C353.75 338.77 356.63 335.89 356.63 332.33V319.12C356.63 315.51 353.7 312.58 350.09 312.58V312.59ZM345.88 323.67H336.06C334.73 323.67 333.65 322.59 333.65 321.26C333.65 319.93 334.73 318.85 336.06 318.85H345.88C347.21 318.85 348.29 319.93 348.29 321.26C348.29 322.59 347.21 323.67 345.88 323.67Z" fill="white"/>
<path d="M384.52 312.52H367C363.44 312.52 360.56 315.4 360.56 318.96V322.22H367.94V320.39C367.94 319.42 368.73 318.63 369.7 318.63H381.03C382 318.63 382.79 319.42 382.79 320.39C382.79 321.54 381.85 322.48 380.7 322.48H372.01V328.82H380.7C381.85 328.82 382.79 329.76 382.79 330.91C382.79 331.88 382 332.67 381.03 332.67H369.7C368.73 332.67 367.94 331.88 367.94 330.91V329.08H360.56V332.34C360.56 335.9 363.44 338.78 367 338.78H384.52C388.08 338.78 390.96 335.9 390.96 332.34V329.23C390.96 327.54 389.84 326.13 388.31 325.65C389.84 325.17 390.96 323.76 390.96 322.07V318.96C390.96 315.4 388.08 312.52 384.52 312.52Z" fill="white"/>
<path d="M604.03 312.59H586.51C582.95 312.59 580.07 315.47 580.07 319.03V322.61H587.45V320.46C587.45 319.49 588.24 318.7 589.21 318.7H600.54C601.51 318.7 602.3 319.49 602.3 320.46V321.2C602.3 322.12 601.59 322.89 600.67 322.97L586.01 324.19C582.65 324.47 580.06 327.28 580.06 330.65V338.78H610.46V332.66H587.66C587.66 331.14 588.89 329.91 590.41 329.91H603.35C607.28 329.91 610.46 326.73 610.46 322.8V319.03C610.46 315.47 607.58 312.59 604.02 312.59H604.03Z" fill="white"/>
<path d="M674.21 312.59H656.69C653.13 312.59 650.25 315.47 650.25 319.03V322.61H657.63V320.46C657.63 319.49 658.42 318.7 659.39 318.7H670.72C671.69 318.7 672.48 319.49 672.48 320.46V321.2C672.48 322.12 671.77 322.89 670.86 322.97L656.2 324.19C652.84 324.47 650.25 327.28 650.25 330.65V338.78H680.65V332.66H657.85C657.85 331.14 659.08 329.91 660.6 329.91H673.54C677.47 329.91 680.65 326.73 680.65 322.8V319.03C680.65 315.47 677.77 312.59 674.21 312.59Z" fill="white"/>
<path d="M638.93 312.59H621.69C617.52 312.59 614.15 315.97 614.15 320.13V331.23C614.15 335.4 617.53 338.77 621.69 338.77H638.93C643.1 338.77 646.47 335.39 646.47 331.23V320.13C646.47 315.96 643.09 312.59 638.93 312.59ZM638.57 328.42C638.57 330.35 637.01 331.91 635.08 331.91H625.57C623.64 331.91 622.08 330.35 622.08 328.42V322.95C622.08 321.02 623.64 319.46 625.57 319.46H635.08C637.01 319.46 638.57 321.02 638.57 322.95V328.42Z" fill="white"/>
<path d="M708.84 312.56H691.32C687.76 312.56 684.88 315.44 684.88 319V322.26H692.26V320.43C692.26 319.46 693.05 318.67 694.02 318.67H705.35C706.32 318.67 707.11 319.46 707.11 320.43C707.11 321.58 706.17 322.52 705.02 322.52H696.33V328.86H705.02C706.17 328.86 707.11 329.8 707.11 330.95C707.11 331.92 706.32 332.71 705.35 332.71H694.02C693.05 332.71 692.26 331.92 692.26 330.95V329.12H684.88V332.38C684.88 335.94 687.76 338.82 691.32 338.82H708.84C712.4 338.82 715.28 335.94 715.28 332.38V329.27C715.28 327.58 714.16 326.17 712.63 325.69C714.16 325.21 715.28 323.8 715.28 322.11V319C715.28 315.44 712.4 312.56 708.84 312.56Z" fill="white"/>
<path d="M462.6 283.49C463.04 282.82 463.43 282.37 463.78 282.12C464.01 281.96 464.26 281.88 464.55 281.86V281.6H461.45V281.86C461.76 281.86 461.99 281.89 462.12 281.93C462.34 282 462.45 282.13 462.45 282.33C462.45 282.37 462.44 282.44 462.41 282.52C462.38 282.6 462.33 282.72 462.25 282.85L460.21 285.97L458.12 282.9C458.02 282.75 457.96 282.63 457.93 282.54C457.9 282.45 457.89 282.37 457.89 282.31C457.89 282.11 457.97 281.98 458.14 281.92C458.31 281.86 458.56 281.84 458.89 281.84V281.58H454.91V281.84C455.28 281.86 455.59 282 455.85 282.27C456.11 282.54 456.56 283.14 457.2 284.08L459.06 286.81V289.28C459.06 289.9 458.98 290.28 458.83 290.44C458.67 290.59 458.28 290.69 457.63 290.73V290.99H461.97V290.73C461.35 290.7 460.95 290.61 460.77 290.48C460.59 290.34 460.5 290 460.5 289.45V286.69L462.6 283.48V283.49Z" fill="white"/>
<path d="M470.29 290.46C470.14 290.59 469.8 290.68 469.27 290.74V291H476.95L477.6 288.6H477.2C476.83 289.41 476.42 289.92 475.96 290.13C475.5 290.34 474.79 290.45 473.83 290.45C472.94 290.45 472.41 290.42 472.23 290.37C472.05 290.32 471.96 290.15 471.96 289.87V286.35H474.15C474.75 286.35 475.14 286.44 475.3 286.62C475.47 286.8 475.6 287.16 475.71 287.71H476.04V284.43H475.71C475.61 284.98 475.47 285.34 475.31 285.52C475.14 285.7 474.76 285.79 474.15 285.79H471.96V282.62C471.96 282.43 471.98 282.31 472.03 282.24C472.08 282.17 472.21 282.14 472.42 282.14H474.35C475.18 282.14 475.72 282.23 475.96 282.42C476.2 282.6 476.38 283.01 476.5 283.64H476.86L476.81 281.61H469.26V281.87C469.79 281.91 470.13 282 470.28 282.16C470.43 282.32 470.51 282.64 470.51 283.15V289.47C470.51 290 470.43 290.34 470.28 290.47L470.29 290.46Z" fill="white"/>
<path d="M483.09 290.33C482.91 290.56 482.63 290.7 482.27 290.74V291H485.09V290.74C484.76 290.71 484.53 290.67 484.41 290.62C484.22 290.53 484.12 290.36 484.12 290.12C484.12 290 484.16 289.84 484.23 289.63C484.3 289.42 484.52 288.86 484.89 287.93H488.64L489.21 289.3C489.29 289.49 489.36 289.68 489.4 289.85C489.45 290.02 489.47 290.15 489.47 290.22C489.47 290.43 489.41 290.56 489.29 290.61C489.17 290.66 488.9 290.71 488.49 290.74V291H492.1V290.74C491.77 290.69 491.53 290.61 491.39 290.48C491.25 290.35 491.06 290.02 490.82 289.49L487.28 281.43H487L484.04 288.4C483.6 289.44 483.28 290.08 483.1 290.32L483.09 290.33ZM486.76 283.44L488.39 287.35H485.13L486.77 283.44H486.76Z" fill="white"/>
<path d="M500.04 286.63L503.59 291.01H505.88V290.75C505.6 290.72 505.37 290.66 505.19 290.56C505.01 290.46 504.83 290.3 504.65 290.08L501.72 286.47C502.51 286.35 503.14 286.1 503.6 285.72C504.06 285.34 504.29 284.8 504.29 284.09C504.29 283.04 503.77 282.31 502.74 281.92C502.19 281.71 501.51 281.61 500.69 281.61H496.76V281.87C497.27 281.91 497.61 282.01 497.76 282.16C497.91 282.31 497.99 282.64 497.99 283.14V289.29C497.99 289.88 497.92 290.25 497.79 290.42C497.66 290.58 497.32 290.69 496.77 290.74V291H500.72V290.74C500.18 290.69 499.84 290.6 499.68 290.46C499.52 290.32 499.44 289.99 499.44 289.46V286.66L500.06 286.62L500.04 286.63ZM499.41 282.63C499.41 282.42 499.45 282.28 499.54 282.22C499.63 282.16 499.88 282.13 500.28 282.13C500.88 282.13 501.36 282.21 501.72 282.37C502.4 282.67 502.73 283.23 502.73 284.05C502.73 284.87 502.35 285.49 501.6 285.8C501.16 285.98 500.43 286.08 499.41 286.12V282.62V282.63Z" fill="white"/>
<path d="M514.19 290.66C513.35 290.66 512.65 290.33 512.09 289.67C511.77 289.29 511.49 288.78 511.25 288.14H510.92L511.34 291.17H511.65C511.67 291.05 511.71 290.95 511.76 290.84C511.82 290.74 511.93 290.69 512.1 290.69C512.17 290.69 512.44 290.77 512.92 290.94C513.4 291.11 513.86 291.19 514.3 291.19C515.18 291.19 515.89 290.94 516.46 290.44C517.02 289.94 517.3 289.32 517.3 288.57C517.3 288.02 517.14 287.53 516.83 287.13C516.51 286.73 515.96 286.29 515.18 285.8L513.93 285.03C513.46 284.74 513.12 284.47 512.9 284.2C512.68 283.94 512.57 283.63 512.57 283.26C512.57 282.85 512.71 282.53 513 282.31C513.29 282.08 513.63 281.97 514.02 281.97C514.52 281.97 515.02 282.15 515.54 282.51C516.05 282.87 516.42 283.51 516.65 284.42H516.99L516.68 281.39H516.39C516.35 281.54 516.3 281.66 516.23 281.74C516.16 281.82 516.04 281.86 515.87 281.86C515.81 281.86 515.54 281.78 515.09 281.62C514.63 281.46 514.24 281.38 513.92 281.38C513.13 281.38 512.5 281.62 512.03 282.09C511.55 282.57 511.32 283.16 511.32 283.88C511.32 284.42 511.52 284.92 511.92 285.37C512.14 285.61 512.43 285.84 512.79 286.07L514 286.83C514.7 287.26 515.15 287.59 515.37 287.81C515.7 288.15 515.87 288.55 515.87 289.02C515.87 289.53 515.7 289.93 515.37 290.22C515.04 290.51 514.65 290.65 514.2 290.65L514.19 290.66Z" fill="white"/>
<path d="M464.32 277.12H469.53C477.55 277.12 484.05 270.62 484.05 262.6V250.15C484.05 245.53 480.3 241.78 475.68 241.78C480.3 241.78 484.05 238.03 484.05 233.41V226.12C484.05 218.1 477.55 211.6 469.53 211.6H464.32C456.3 211.6 449.8 218.1 449.8 226.12V232.93H461.75V227.31C461.75 224.6 463.95 222.4 466.66 222.4C469.37 222.4 471.57 224.6 471.57 227.31V232.44C471.57 235.15 469.37 237.35 466.66 237.35H461.93V246.2H466.66C469.37 246.2 471.57 248.4 471.57 251.11V261.4C471.57 264.11 469.37 266.31 466.66 266.31C463.95 266.31 461.75 264.11 461.75 261.4V254.4H449.8V262.59C449.8 270.61 456.3 277.11 464.32 277.11V277.12Z" fill="white"/>
<path d="M506.19 277.12C515.15 277.12 522.41 269.86 522.41 260.9V227.83C522.41 218.87 515.15 211.61 506.19 211.61C497.23 211.61 489.97 218.87 489.97 227.83V260.9C489.97 269.86 497.23 277.12 506.19 277.12ZM501.89 226.06C501.89 223.68 503.82 221.76 506.19 221.76C508.56 221.76 510.49 223.69 510.49 226.06V261.5C510.49 263.88 508.56 265.8 506.19 265.8C503.82 265.8 501.89 263.87 501.89 261.5V226.06Z" fill="white"/>
<path d="M486.1 184.04C445.28 184.04 412.19 217.13 412.19 257.95C412.19 298.77 445.28 331.86 486.1 331.86C526.92 331.86 560.01 298.77 560.01 257.95C560.01 217.13 526.92 184.04 486.1 184.04ZM486.1 327.85C447.55 327.85 416.19 296.49 416.19 257.94C416.19 219.39 447.55 188.03 486.1 188.03C524.65 188.03 556.01 219.39 556.01 257.94C556.01 296.49 524.65 327.85 486.1 327.85Z" fill="white"/>
<path d="M486.1 190.99C448.79 190.99 418.55 221.23 418.55 258.54C418.55 295.85 448.79 326.09 486.1 326.09C523.41 326.09 553.65 295.85 553.65 258.54C553.65 221.23 523.41 190.99 486.1 190.99ZM486.1 324.08C449.96 324.08 420.55 294.68 420.55 258.53C420.55 222.38 449.95 192.98 486.1 192.98C522.25 192.98 551.65 222.38 551.65 258.53C551.65 294.68 522.25 324.08 486.1 324.08Z" fill="white"/>
<path d="M430.63 267.48C434.5 267.48 435.54 262.98 435.54 262.98C431.05 266.48 430.11 261.78 429.11 258.92C428.11 256.06 422.92 252.64 422.92 252.64C422.6 253.32 421.84 257.55 422.42 260.58C422.99 263.61 426.76 267.48 430.62 267.48H430.63Z" fill="white"/>
<path d="M432.61 263.08C432.61 263.08 439.3 259.47 436.06 252.26C436.06 252.26 430.21 255.5 432.61 263.08Z" fill="white"/>
<path d="M429.79 255.82C429.79 255.82 432.38 246.08 425.76 239.59C425.76 239.59 422.63 243.13 423.26 247.51C423.89 251.89 427.11 254.82 429.79 255.82Z" fill="white"/>
<path d="M438.15 242.86C431.04 245.32 431.36 255.4 431.36 255.4C438.67 249.23 438.15 242.86 438.15 242.86Z" fill="white"/>
<path d="M436.27 242.34C436.27 242.34 433.76 242.01 433.81 239.59C433.86 237.17 435.16 231.38 431.35 226.8C431.35 226.8 426.7 232.26 427.9 237.64C429.1 243.02 432.29 243.6 436.26 242.34H436.27Z" fill="white"/>
<path d="M436.27 240.04C436.27 240.04 443.88 239.31 443.19 231.31C443.19 231.31 437.32 233.03 436.27 240.04Z" fill="white"/>
<path d="M440.32 221.28C440.32 221.28 431.8 224.31 436.3 233.45C436.3 233.45 444.03 230.71 440.32 221.28Z" fill="white"/>
<path d="M549.28 252.63C549.28 252.63 544.09 256.05 543.09 258.91C542.1 261.77 541.16 266.47 536.66 262.97C536.66 262.97 537.71 267.48 541.57 267.47C545.44 267.47 549.2 263.6 549.77 260.57C550.34 257.54 549.59 253.3 549.27 252.63H549.28Z" fill="white"/>
<path d="M536.15 252.27C532.91 259.48 539.6 263.09 539.6 263.09C542 255.51 536.15 252.27 536.15 252.27Z" fill="white"/>
<path d="M542.42 255.82C545.1 254.82 548.32 251.9 548.95 247.51C549.58 243.12 546.45 239.59 546.45 239.59C539.82 246.09 542.42 255.82 542.42 255.82Z" fill="white"/>
<path d="M534.06 242.86C534.06 242.86 533.54 249.23 540.85 255.4C540.85 255.4 541.16 245.32 534.06 242.86Z" fill="white"/>
<path d="M535.94 242.34C539.91 243.59 543.1 243.02 544.3 237.64C545.5 232.26 540.85 226.8 540.85 226.8C537.04 231.38 538.34 237.17 538.39 239.59C538.44 242.01 535.93 242.34 535.93 242.34H535.94Z" fill="white"/>
<path d="M535.94 240.04C534.9 233.04 529.02 231.31 529.02 231.31C528.32 239.3 535.94 240.04 535.94 240.04Z" fill="white"/>
<path d="M535.91 233.46C540.4 224.32 531.89 221.29 531.89 221.29C528.18 230.72 535.91 233.46 535.91 233.46Z" fill="white"/>
<path d="M500.68 309.6C500.45 308.65 499.91 308.1 499.05 307.94C498.59 307.85 498.01 307.89 497.33 308.06C496.87 308.17 496.59 308.27 496.5 308.36C496.41 308.45 496.4 308.62 496.46 308.86L497.43 312.89C498.6 312.56 499.41 312.24 499.87 311.91C500.65 311.35 500.93 310.57 500.69 309.59L500.68 309.6Z" fill="white"/>
<path d="M521.64 303.26L524.57 300.73L520.07 298.48L521.64 303.26Z" fill="white"/>
<path d="M438.04 277.19L433.01 277.05L434.41 280.66L438.04 277.19Z" fill="white"/>
<path d="M533.59 266.44C529.73 289.16 509.91 306.52 486.11 306.52C462.31 306.52 442.49 289.16 438.63 266.44C431.42 272.58 425.86 270.1 423.8 268.75C428.76 298.69 454.76 321.52 486.11 321.52C517.46 321.52 543.45 298.69 548.42 268.75C546.36 270.1 540.81 272.58 533.59 266.44ZM432.25 286.2L431.96 286.31L430.42 282.31L430.71 282.2C430.93 282.64 431.09 282.92 431.2 283.03C431.31 283.14 431.48 283.15 431.71 283.06C431.79 283.03 431.91 282.95 432.08 282.83C432.25 282.71 432.43 282.55 432.61 282.38L433.88 281.17L432.28 277.03C431.09 277.02 430.37 277.02 430.12 277.03C429.86 277.03 429.67 277.07 429.54 277.12C429.27 277.22 429.13 277.4 429.11 277.65C429.11 277.81 429.15 278.07 429.26 278.45L428.97 278.56L427.77 275.45L428.06 275.34C428.26 275.73 428.53 275.97 428.87 276.07C429.21 276.17 430.05 276.24 431.39 276.29L440.37 276.59L440.49 276.9L433.09 284.26C432.6 284.75 432.32 285.1 432.24 285.31C432.16 285.52 432.17 285.82 432.26 286.21L432.25 286.2ZM440.04 298.63L439.87 298.4L442.85 286.91L437.58 290.82C436.84 291.37 436.44 291.83 436.37 292.21C436.33 292.46 436.46 292.85 436.77 293.38L436.52 293.57L434.16 290.39L434.41 290.2C434.88 290.72 435.27 290.98 435.59 290.99C435.9 291 436.42 290.75 437.13 290.22L443.09 285.8L443.17 285.45C443.26 285.08 443.28 284.8 443.23 284.62C443.18 284.44 443.06 284.21 442.86 283.92L443.11 283.73L444.82 286.04L442.22 296.06L446.72 292.73C447.46 292.18 447.86 291.72 447.92 291.33C447.96 291.08 447.81 290.69 447.49 290.16L447.74 289.97L450.1 293.15L449.85 293.34C449.42 292.87 449.04 292.61 448.71 292.59C448.38 292.57 447.87 292.82 447.16 293.34L440.04 298.62V298.63ZM451.97 309.32L451.81 297.45L447.76 302.61C447.19 303.33 446.93 303.89 446.97 304.28C447 304.53 447.23 304.87 447.67 305.3L447.48 305.55L444.37 303.11L444.56 302.86C445.15 303.23 445.6 303.39 445.91 303.32C446.22 303.25 446.64 302.87 447.19 302.17L451.77 296.33V295.97C451.74 295.59 451.69 295.32 451.59 295.16C451.5 295 451.32 294.81 451.05 294.59L451.24 294.34L453.5 296.11L453.64 306.46L457.1 302.06C457.67 301.34 457.93 300.78 457.89 300.39C457.86 300.14 457.62 299.8 457.16 299.37L457.35 299.12L460.46 301.56L460.27 301.81C459.72 301.47 459.29 301.33 458.97 301.39C458.65 301.45 458.22 301.83 457.67 302.52L452.2 309.5L451.97 309.32ZM466.59 304.79C465.96 304.52 465.52 304.41 465.26 304.48C465 304.55 464.73 304.86 464.46 305.42L461.13 312.13C460.84 312.71 460.75 313.12 460.87 313.35C460.98 313.58 461.34 313.87 461.93 314.22L461.79 314.5L457.32 312.29L457.46 312.01C458.1 312.27 458.54 312.38 458.79 312.33C459.04 312.28 459.31 311.96 459.6 311.38L462.93 304.67C463.21 304.12 463.29 303.71 463.19 303.46C463.09 303.21 462.74 302.92 462.14 302.58L462.28 302.3L466.75 304.51L466.61 304.79H466.59ZM479.53 308.71C479.17 308.67 478.89 308.7 478.69 308.79C478.39 308.93 478.03 309.29 477.62 309.85L471.63 318.08L471.38 318.02L469.68 308.01C469.54 307.16 469.39 306.62 469.23 306.38C469.07 306.14 468.8 305.96 468.42 305.83L468.49 305.55L472.83 306.68L472.76 306.96C472.35 306.86 472.07 306.81 471.9 306.82C471.62 306.84 471.44 306.98 471.37 307.24C471.33 307.37 471.33 307.58 471.37 307.84C471.4 308.11 471.47 308.55 471.57 309.18L472.65 315.52L476.56 309.98C476.73 309.73 476.87 309.52 476.97 309.35C477.07 309.17 477.14 309.03 477.17 308.91C477.25 308.59 477.17 308.34 476.93 308.16C476.79 308.05 476.54 307.95 476.17 307.84L476.24 307.56L479.58 308.43L479.51 308.71H479.53ZM490.51 319.74L481.41 319.72V319.41C482.03 319.35 482.43 319.24 482.62 319.08C482.8 318.92 482.9 318.53 482.9 317.9L482.92 310.41C482.92 309.81 482.83 309.42 482.65 309.24C482.47 309.06 482.07 308.94 481.44 308.9V308.59L490.39 308.61L490.44 311.02H490.01C489.87 310.28 489.66 309.79 489.37 309.58C489.08 309.36 488.45 309.25 487.46 309.25H485.17C484.92 309.25 484.77 309.28 484.71 309.36C484.65 309.44 484.62 309.59 484.62 309.81V313.57H487.21C487.93 313.57 488.39 313.47 488.58 313.26C488.78 313.05 488.94 312.62 489.06 311.97H489.45V315.86H489.05C488.93 315.21 488.77 314.77 488.57 314.56C488.37 314.35 487.92 314.24 487.21 314.24H484.61L484.6 318.4C484.6 318.73 484.7 318.93 484.92 318.99C485.13 319.05 485.76 319.08 486.82 319.09C487.96 319.09 488.81 318.97 489.35 318.72C489.89 318.47 490.38 317.87 490.82 316.91H491.29L490.52 319.75L490.51 319.74ZM503.59 317.36L498.28 313.29L497.57 313.5L498.34 316.73C498.49 317.34 498.67 317.7 498.89 317.81C499.11 317.93 499.54 317.94 500.17 317.85L500.24 318.15L495.69 319.24L495.62 318.94C496.24 318.73 496.6 318.52 496.71 318.29C496.82 318.06 496.79 317.62 496.63 316.94L494.93 309.85C494.79 309.27 494.62 308.92 494.4 308.78C494.18 308.64 493.78 308.62 493.17 308.72L493.1 308.42L497.64 307.33C498.58 307.1 499.4 307.04 500.09 307.12C501.39 307.29 502.19 307.98 502.48 309.19C502.68 310 502.56 310.69 502.13 311.26C501.7 311.82 501.05 312.28 500.17 312.64L504.54 315.99C504.81 316.2 505.06 316.33 505.3 316.4C505.54 316.47 505.82 316.48 506.15 316.43L506.22 316.73L503.58 317.36H503.59ZM516.14 311.35C515.81 312.18 515.19 312.83 514.27 313.3C513.8 313.54 513.27 313.69 512.68 313.77C512.09 313.85 511.75 313.91 511.68 313.95C511.5 314.04 511.41 314.15 511.41 314.29C511.41 314.43 511.42 314.56 511.46 314.7L511.13 314.87L509.06 311.9L509.4 311.72C510 312.27 510.57 312.65 511.11 312.88C512.06 313.28 512.98 313.25 513.86 312.8C514.34 312.56 514.67 312.2 514.87 311.72C515.07 311.24 515.03 310.73 514.75 310.18C514.5 309.69 514.11 309.36 513.58 309.17C513.24 309.06 512.58 308.96 511.61 308.87L509.92 308.72C509.41 308.67 508.98 308.58 508.62 308.45C507.95 308.19 507.48 307.78 507.19 307.2C506.81 306.44 506.74 305.68 506.98 304.92C507.23 304.16 507.77 303.57 508.6 303.15C508.94 302.98 509.4 302.85 509.96 302.78C510.53 302.7 510.84 302.65 510.91 302.61C511.1 302.52 511.2 302.41 511.23 302.28C511.26 302.16 511.25 302 511.2 301.82L511.51 301.66L513.46 304.69L513.1 304.87C512.37 304.03 511.63 303.56 510.9 303.45C510.17 303.34 509.53 303.42 509.01 303.69C508.6 303.9 508.3 304.2 508.12 304.6C507.94 305 507.95 305.41 508.17 305.84C508.37 306.23 508.65 306.5 509.02 306.65C509.4 306.81 509.91 306.92 510.55 306.97L512.28 307.12C513.36 307.21 514.18 307.38 514.74 307.63C515.29 307.89 515.72 308.31 516.02 308.9C516.42 309.69 516.46 310.5 516.13 311.33L516.14 311.35ZM527.48 303.93L527.27 303.69C527.61 303.33 527.82 303.09 527.89 302.95C527.96 302.81 527.91 302.65 527.75 302.46C527.7 302.4 527.58 302.31 527.4 302.19C527.22 302.07 527.02 301.95 526.8 301.85L525.23 301.07L521.87 303.98C522.26 305.1 522.5 305.78 522.6 306.02C522.69 306.26 522.79 306.43 522.88 306.54C523.07 306.75 523.28 306.83 523.53 306.76C523.68 306.72 523.92 306.58 524.24 306.35L524.45 306.59L521.93 308.77L521.73 308.53C522.02 308.21 522.16 307.87 522.15 307.52C522.13 307.17 521.92 306.35 521.5 305.07L518.74 296.52L518.99 296.3L528.41 300.77C529.03 301.06 529.46 301.21 529.68 301.22C529.91 301.22 530.18 301.12 530.52 300.9L530.73 301.14L527.49 303.94L527.48 303.93ZM538.27 291.01L531.61 291.56L531.23 292.19L533.97 294.06C534.48 294.41 534.86 294.56 535.11 294.49C535.35 294.43 535.68 294.15 536.08 293.66L536.34 293.84L533.7 297.71L533.44 297.53C533.76 296.96 533.88 296.56 533.81 296.32C533.74 296.08 533.42 295.77 532.84 295.37L526.81 291.25C526.32 290.92 525.95 290.77 525.7 290.82C525.45 290.86 525.13 291.12 524.75 291.6L524.49 291.42L527.12 287.57C527.67 286.77 528.23 286.17 528.79 285.78C529.87 285.03 530.92 285 531.95 285.71C532.64 286.18 533.02 286.77 533.08 287.47C533.14 288.17 532.97 288.95 532.56 289.81L538.05 289.35C538.39 289.32 538.66 289.25 538.88 289.14C539.1 289.03 539.32 288.85 539.53 288.59L539.79 288.77L538.26 291.01H538.27ZM544.16 277.61L544.45 277.72L542.65 282.53L542.36 282.42C542.59 281.69 542.65 281.21 542.54 280.97C542.43 280.73 542.04 280.49 541.35 280.23L538.61 279.2L534.81 280.13C533.5 280.45 532.64 280.7 532.24 280.88C531.84 281.06 531.55 281.35 531.37 281.75L531.08 281.64L532.73 277.23L533.02 277.34C532.87 277.71 532.8 277.99 532.79 278.2C532.79 278.41 532.9 278.56 533.12 278.64C533.19 278.66 533.28 278.68 533.39 278.69C533.5 278.69 533.66 278.68 533.86 278.63L538.14 277.58L535.53 274.02C535.41 273.87 535.31 273.77 535.23 273.7C535.15 273.63 535.08 273.59 535.03 273.58C534.8 273.49 534.61 273.56 534.45 273.77C534.35 273.9 534.23 274.13 534.1 274.48L533.81 274.37L535.1 270.92L535.39 271.03C535.29 271.36 535.27 271.67 535.35 271.99C535.48 272.48 535.82 273.11 536.37 273.87L539.05 277.53L542.12 278.68C542.73 278.91 543.15 278.95 543.37 278.81C543.6 278.67 543.86 278.26 544.15 277.59L544.16 277.61Z" fill="white"/>
<path d="M530.91 287.21C530.11 286.66 529.33 286.62 528.59 287.08C528.19 287.33 527.79 287.74 527.39 288.32C527.12 288.71 526.98 288.98 526.98 289.1C526.98 289.22 527.08 289.36 527.29 289.5L530.71 291.84C531.36 290.81 531.74 290.03 531.86 289.48C532.06 288.54 531.74 287.78 530.91 287.21Z" fill="white"/>
<path d="M270.96 242.29H269.57V254.88H270.96C273.29 254.88 275.18 252.99 275.18 250.66V246.51C275.18 244.18 273.29 242.29 270.96 242.29Z" fill="white"/>
<path d="M324.84 242.19H323.03V253.34H324.84C326.94 253.34 328.64 251.64 328.64 249.54V245.99C328.64 243.89 326.94 242.19 324.84 242.19Z" fill="white"/>
<path d="M298.25 240.76C296.43 240.76 294.96 242.23 294.96 244.05V271.49C294.96 273.31 296.43 274.78 298.25 274.78C300.07 274.78 301.54 273.31 301.54 271.49V244.05C301.54 242.23 300.07 240.76 298.25 240.76Z" fill="white"/>
<path d="M684.43 242.29H683.04V254.88H684.43C686.76 254.88 688.65 252.99 688.65 250.66V246.51C688.65 244.18 686.76 242.29 684.43 242.29Z" fill="white"/>
<path d="M707.08 264.28H709.94H712.8L709.94 243.75L707.08 264.28Z" fill="white"/>
<path d="M747.54 242.29H745.73V253.44H747.54C749.64 253.44 751.34 251.74 751.34 249.64V246.09C751.34 243.99 749.64 242.29 747.54 242.29Z" fill="white"/>
<path d="M633.19 242.29H631.38V253.44H633.19C635.29 253.44 636.99 251.74 636.99 249.64V246.09C636.99 243.99 635.29 242.29 633.19 242.29Z" fill="white"/>
<path d="M898.27 250.59C898.23 250.32 898.08 250.08 897.86 249.93L874.56 233.52C874.35 233.37 874.08 233.31 873.83 233.35C873.4 230.89 872.32 228.55 870.62 226.62C858.35 212.7 840.69 204.73 822.13 204.73H689.27C711.16 203.59 728.56 185.48 728.56 163.3V130.58H685.87V158.29C685.87 166.96 678.84 173.99 670.17 173.99C661.5 173.99 654.47 166.96 654.47 158.29V62.49C654.47 53.82 661.5 46.79 670.17 46.79C678.84 46.79 685.87 53.82 685.87 62.49V82.34H728.56V59.54C728.56 34.25 708.06 13.74 682.76 13.74H658.01C632.72 13.74 612.21 34.24 612.21 59.54V87.11V163.28C612.21 185.46 629.61 203.57 651.5 204.71H548.06L546.68 202.33H605.77V164.85H547.36V125.17H601.16V87.69H547.36V54.19H603.03V16.71H504.35V177.65H489.4V164.85H430.99V125.17H484.79V87.69H430.99V54.19H486.66V16.71H387.98V202.34H425.47L424.06 204.78H149.87C131.32 204.78 113.66 212.75 101.38 226.67C99.68 228.6 98.49 232.73 98.27 232.88L74.14 249.98C73.92 250.14 73.77 250.38 73.73 250.64C73.69 250.91 73.76 251.18 73.92 251.4L103.26 290.03L98.61 335.03C98.57 335.43 98.77 335.82 99.13 336.01C99.28 336.09 99.45 336.13 99.61 336.13C99.83 336.13 100.05 336.06 100.23 335.91C100.39 335.79 116.33 323.55 155.36 331.01C163.47 332.56 171.26 327.77 173.48 319.88C173.48 319.88 175.86 311.31 175.86 311.21L422.72 308.75L439.45 337.73C439.63 338.04 439.96 338.23 440.32 338.23H531.88C532.24 338.23 532.57 338.04 532.75 337.73L549.51 308.69L796.14 311.15C796.14 311.24 796.14 311.34 796.16 311.43L798.52 319.82C800.74 327.71 808.53 332.5 816.64 330.95C855.67 323.5 871.61 335.73 871.76 335.85C871.94 336 872.16 336.07 872.39 336.07C872.55 336.07 872.72 336.03 872.87 335.95C873.22 335.76 873.43 335.37 873.39 334.97L868.74 289.97L898.08 251.34C898.24 251.12 898.31 250.85 898.27 250.58V250.59ZM171.41 318.61C169.47 325.5 162.67 329.67 155.59 328.32C122.62 322.02 106.87 328.7 101.63 331.77L106.22 289.82C106.25 289.57 106.18 289.31 106.02 289.11L77.17 251.11L97.97 235.65V236.11C97.99 237.1 98.1 238.09 98.34 239.07L113.29 299.53C115.07 306.73 121.57 311.77 128.99 311.69L173.83 311.25L171.4 318.61H171.41ZM415.82 304.63C415.64 304.94 415.32 305.13 414.96 305.13L128.53 307.98C122.99 307.98 118.2 304.23 116.87 298.85L101.92 238.39C101.15 235.29 101.96 232 104.07 229.61C115.58 216.56 132.16 209.08 149.56 209.08H416.27C416.63 209.08 416.96 209.27 417.14 209.58C417.32 209.89 417.32 210.27 417.14 210.58L389.62 258.25L415.82 303.64C416 303.95 416 304.33 415.82 304.64V304.63ZM531.31 336.24H440.91L395.71 257.95L440.91 179.66H531.31L576.51 257.95L531.31 336.24ZM556.98 305.13C556.62 305.13 556.3 304.93 556.12 304.63C555.94 304.32 555.94 303.94 556.12 303.63L582.32 258.24L554.8 210.57C554.62 210.26 554.62 209.88 554.8 209.57C554.98 209.26 555.31 209.07 555.67 209.07H822.38C839.78 209.07 856.36 216.55 867.87 229.6C869.98 232 870.79 235.28 870.02 238.38L855.07 298.84C853.74 304.21 848.95 307.97 843.42 307.97H843.3L556.97 305.12L556.98 305.13ZM866.91 289.08C866.76 289.28 866.69 289.54 866.71 289.79L871.18 333.08C867.43 330.88 857.81 326.51 840.56 326.51C833.7 326.51 825.64 327.2 816.26 328.99C809.18 330.34 802.38 326.17 800.44 319.28L798.16 311.19H799.97L843 311.62C850.42 311.69 856.92 306.66 858.7 299.46L873.65 239C873.89 238.02 874.01 237.03 874.03 236.04L874.24 235.73L895.85 250.96L866.9 289.08H866.91Z" fill="white"/>
<path d="M387.59 257.75L414.53 211.08H149.56C132.73 211.08 116.7 218.32 105.57 230.94C103.89 232.84 103.25 235.45 103.86 237.92L118.81 298.38C119.92 302.86 123.91 305.99 128.52 305.99H128.62L413.23 303.15L387.59 258.75C387.41 258.44 387.41 258.06 387.59 257.75ZM220.42 282.93H210.36V232.8H220.42V282.93ZM258.07 282.93H249.02V246.38L244.06 282.93H236.06L231.1 246.39V282.93H222.05V232.8H236.13L240.05 262.29L243.97 232.8H258.05V282.93H258.07ZM311.61 270.13C311.61 277.51 305.63 283.49 298.25 283.49C290.87 283.49 284.89 277.51 284.89 270.13V252.85C284.89 258.8 280.07 263.62 274.12 263.62H269.56V282.94H259.63V232.81H274.12C280.07 232.81 284.89 237.63 284.89 243.58V245.43C284.89 238.05 290.87 232.07 298.25 232.07C305.63 232.07 311.61 238.05 311.61 245.43V270.13ZM362.56 243.88H354.99V282.83H344.99V243.88H338.35V249.23C338.35 253.13 336.27 256.54 333.16 258.43C335.38 258.9 338.35 260.39 338.35 264.95V277.69C338.35 279.6 339.09 281.44 340.41 282.82H329.15V266.75C329.15 264.62 327.42 262.89 325.29 262.89H323.03V282.82H313.1V232.69H327.59C331.98 232.69 335.76 235.32 337.43 239.1V232.69H362.56V243.87V243.88Z" fill="white"/>
<path d="M853.13 298.38L868.08 237.92C868.69 235.45 868.05 232.85 866.37 230.94C855.24 218.32 839.21 211.08 822.38 211.08H557.4L584.34 257.75C584.52 258.06 584.52 258.44 584.34 258.75L558.7 303.15L843.41 305.99C848.02 305.99 852.01 302.86 853.12 298.38H853.13ZM637.51 282.93V266.86C637.51 264.73 635.78 263 633.65 263H631.39V282.93H621.46V232.8H635.95C641.9 232.8 646.72 237.62 646.72 243.57V249.33C646.72 253.23 644.64 256.64 641.53 258.53C643.75 259 646.72 260.49 646.72 265.05V277.79C646.72 279.7 647.46 281.54 648.78 282.92H637.52L637.51 282.93ZM672.07 282.93H649.34V232.8H671.61V243.51H659.29V251.5H671.61V262.21H659.29V271.97H672.08V282.93H672.07ZM683.04 263.61V282.93H673.11V232.8H687.6C693.55 232.8 698.37 237.62 698.37 243.57V252.84C698.37 258.79 693.55 263.61 687.6 263.61H683.04ZM733.88 282.93H723.82H714.92L714.11 273.95H705.75L704.94 282.93H694.09L703.62 232.8H716.23L723.81 272.68V232.8H733.87V282.93H733.88ZM751.85 282.93V266.86C751.85 264.73 750.12 263 747.99 263H745.73V282.93H735.8V232.8H750.29C756.24 232.8 761.06 237.62 761.06 243.57V249.33C761.06 253.23 758.98 256.64 755.87 258.53C758.09 259 761.06 260.49 761.06 265.05V277.79C761.06 279.7 761.8 281.54 763.12 282.92H751.86L751.85 282.93Z" fill="white"/>
<path d="M245.27 169.59L248.9 166.11V166.13L248.91 166.12L266.77 149.02V128.22H255.44H217.55L192.08 152.85H141.13L113.96 126.1V72.58L140.28 46.28H192.08L217.13 72.58H238.11H242.11H248.37H255.44H266.77V49.67L243.57 27.22L243.56 27.26L239.68 23.48V23.47L215.4 0H117.35L71.65 44.87V155.2L116.56 198.14H215.4L245.27 169.59Z" fill="white"/>
<path d="M371.31 152.09V137.5C371.31 124.21 362.37 113.01 350.17 109.58C363.78 102.54 373.09 88.34 373.09 71.95V59.06C373.09 35.67 354.13 16.71 330.74 16.71H255.43V33.14L269.54 46.79L270.76 47.97V76.58H255.43V124.22H270.76V150.73L269.53 151.91L255.85 165.01V202.34H299.54V128.47H313.78C317.56 128.47 321.22 130.07 323.58 133.02C326.87 137.11 329.81 144.84 329.81 159.37V193.74C329.81 193.74 330 201.42 331.98 202.34H380.51C371.79 199.61 371.3 152.1 371.3 152.1L371.31 152.09ZM329.81 78.55C329.81 87.9 322.23 95.48 312.88 95.48H299.54V49.66H312.88C322.23 49.66 329.81 57.24 329.81 66.59V78.54V78.55Z" fill="white"/>
<path d="M68.65 46.8201L29.47 65.8101L0 68.7801V132.96L27.29 134.74L68.65 153.34V46.8201Z" fill="white"/>
<path d="M96.36 239.33C96.38 239.4 96.39 239.46 96.41 239.53L111.36 299.99C113.35 308.05 120.54 313.68 128.84 313.68H129.02L171.07 313.27L169.52 317.98V318.02L169.49 318.06C168.06 323.15 163.55 326.56 158.26 326.56C157.5 326.56 156.73 326.49 155.97 326.34C146.77 324.58 138.15 323.69 130.36 323.69C117.48 323.69 109.03 326.12 104.02 328.31L108.21 290.01C108.29 289.25 108.08 288.5 107.62 287.89L79.99 251.5L96.36 239.33Z" fill="white"/>
<path d="M876.18 239.91L892.55 252.08L864.92 288.47C864.46 289.08 864.25 289.83 864.33 290.59L868.52 328.89C863.52 326.7 855.07 324.27 842.18 324.27C834.39 324.27 825.77 325.16 816.57 326.92C815.81 327.06 815.04 327.14 814.28 327.14C809 327.14 804.48 323.72 803.05 318.64V318.6L803.02 318.56L801.47 313.85L843.52 314.26H843.7C852 314.26 859.19 308.63 861.18 300.58L876.13 240.12C876.15 240.05 876.16 239.99 876.18 239.92" fill="white"/>
</svg>
